<?xml version="1.0" encoding="utf-8"?>
<!-- Generator: Adobe Illustrator 26.0.3, SVG Export Plug-In . SVG Version: 6.00 Build 0)  -->
<svg version="1.2" baseProfile="tiny" id="Layer_2_00000067928475669646851140000002922520349465466011_"
	 xmlns="http://www.w3.org/2000/svg" xmlns:xlink="http://www.w3.org/1999/xlink" x="0px" y="0px" viewBox="0 0 354.59 297.26"
	 overflow="visible" xml:space="preserve">
<path fill="none" stroke="#000000" stroke-width="3" stroke-miterlimit="10" d="M76.66,255.1c0,0-45.1,8.5-45.1-42.03
	s0-121.07,0-121.07s1.05-24.21,45.27-24.21s36.85,0,36.85,0s0-24.21,18.95-24.21s67.38,0,67.38,0s25.27-4.21,23.16,23.16h50.65
	c3.31,0,6.55,0.82,9.46,2.41c8.38,4.59,18.89,14.08,17.75,41.81"/>
<circle fill="none" stroke="#000000" stroke-width="4" stroke-miterlimit="10" cx="178.08" cy="155.14" r="45.61"/>
<g>
	<rect x="89.28" y="241.61" fill="none" width="303.59" height="36.45"/>
	<path d="M91.19,241.61l5.36,17.1l5.34-17.1h0.68l-6.02,19.33l-6.04-19.33H91.19z"/>
	<path d="M113.24,260.66h-0.71l-1.09-3.4h-8.63l-1.06,3.4h-0.68l6.1-19.6L113.24,260.66z M107.17,243.24l-4.11,13.34h8.19
		L107.17,243.24z"/>
	<path d="M116.75,241.61v18.4h8.19v0.65h-8.85V241.6h0.66V241.61z"/>
	<path d="M141.71,242.38c0.87,0.52,1.56,1.21,2.07,2.08s0.76,1.82,0.76,2.86c0,1.11-0.3,2.11-0.9,3.01c-0.6,0.9-1.39,1.61-2.37,2.12
		s-2.01,0.78-3.08,0.78h-3.08v7.43h-0.65V241.6h4.41C139.9,241.61,140.84,241.87,141.71,242.38z M140.95,251.87
		c0.87-0.47,1.57-1.11,2.11-1.92c0.53-0.81,0.8-1.68,0.8-2.63c0-0.91-0.22-1.75-0.67-2.53s-1.05-1.4-1.81-1.85s-1.61-0.68-2.53-0.68
		h-3.73v10.32h3.08C139.16,252.58,140.08,252.34,140.95,251.87z"/>
	<path d="M147.92,241.61v11.46h9.61v-11.46h0.65v19.06h-0.65v-6.89h-9.61v6.89h-0.65v-19.06H147.92z"/>
	<path d="M165.49,259.62c-1.41-0.88-2.52-2.07-3.35-3.58c-0.83-1.51-1.24-3.14-1.24-4.9c0-1.76,0.41-3.39,1.24-4.9
		c0.83-1.51,1.94-2.7,3.35-3.58s2.94-1.32,4.61-1.32c1.65,0,3.19,0.44,4.6,1.32c1.42,0.88,2.54,2.07,3.36,3.58
		c0.83,1.51,1.24,3.14,1.24,4.9c0,1.76-0.41,3.39-1.24,4.9c-0.83,1.51-1.95,2.7-3.36,3.58c-1.42,0.88-2.95,1.32-4.6,1.32
		C168.44,260.94,166.9,260.5,165.49,259.62z M174.38,259.06c1.31-0.82,2.34-1.93,3.1-3.33c0.76-1.41,1.14-2.94,1.14-4.59
		s-0.39-3.18-1.16-4.59s-1.81-2.52-3.1-3.33c-1.3-0.82-2.72-1.22-4.26-1.22s-2.97,0.41-4.27,1.22c-1.31,0.82-2.34,1.93-3.1,3.33
		c-0.76,1.41-1.14,2.94-1.14,4.59s0.39,3.18,1.16,4.59c0.77,1.41,1.81,2.52,3.1,3.33c1.3,0.82,2.72,1.22,4.26,1.22
		C171.65,260.28,173.07,259.87,174.38,259.06z"/>
	<path d="M179.31,242.26v-0.65h11.6v0.65h-5.5v18.4h-0.65v-18.4H179.31z"/>
	<path d="M195.49,259.62c-1.41-0.88-2.52-2.07-3.35-3.58c-0.83-1.51-1.24-3.14-1.24-4.9c0-1.76,0.41-3.39,1.24-4.9
		c0.83-1.51,1.94-2.7,3.35-3.58s2.94-1.32,4.61-1.32c1.65,0,3.19,0.44,4.6,1.32c1.42,0.88,2.54,2.07,3.36,3.58
		c0.83,1.51,1.24,3.14,1.24,4.9c0,1.76-0.41,3.39-1.24,4.9c-0.83,1.51-1.95,2.7-3.36,3.58c-1.42,0.88-2.95,1.32-4.6,1.32
		C198.43,260.94,196.89,260.5,195.49,259.62z M204.38,259.06c1.31-0.82,2.34-1.93,3.1-3.33c0.76-1.41,1.14-2.94,1.14-4.59
		s-0.39-3.18-1.16-4.59s-1.81-2.52-3.1-3.33c-1.3-0.82-2.72-1.22-4.26-1.22s-2.97,0.41-4.27,1.22c-1.31,0.82-2.34,1.93-3.1,3.33
		c-0.76,1.41-1.14,2.94-1.14,4.59s0.39,3.18,1.16,4.59c0.77,1.41,1.81,2.52,3.1,3.33c1.3,0.82,2.72,1.22,4.26,1.22
		C201.65,260.28,203.07,259.87,204.38,259.06z"/>
	<path d="M215.8,259.62c-1.41-0.88-2.52-2.07-3.35-3.57c-0.83-1.5-1.24-3.13-1.24-4.91s0.41-3.42,1.24-4.91
		c0.83-1.5,1.94-2.69,3.35-3.57s2.94-1.32,4.61-1.32c1.74,0,3.38,0.5,4.93,1.5l-0.38,0.57c-1.43-0.94-2.95-1.42-4.55-1.42
		c-1.54,0-2.96,0.41-4.26,1.24c-1.3,0.83-2.33,1.94-3.1,3.33s-1.16,2.92-1.16,4.57s0.39,3.18,1.16,4.57c0.77,1.4,1.81,2.51,3.1,3.33
		c1.3,0.83,2.72,1.24,4.26,1.24s2.99-0.42,4.33-1.25v-7.54h-2.75v-0.68h3.4v8.6l-0.16,0.08c-1.45,0.96-3.06,1.44-4.82,1.44
		C218.74,260.94,217.2,260.5,215.8,259.62z"/>
	<path d="M236.06,242.43c0.93,0.54,1.66,1.28,2.21,2.21c0.54,0.93,0.82,1.94,0.82,3.05c0,1.23-0.37,2.36-1.1,3.39
		c-0.73,1.03-1.67,1.79-2.79,2.3l3.7,7.3h-0.73l-3.59-7.05c-0.76,0.25-1.52,0.38-2.29,0.38h-3.24v6.67h-0.65v-19.06h4.66
		C234.13,241.61,235.14,241.88,236.06,242.43z M235.25,252.55c0.94-0.49,1.7-1.16,2.26-2.01s0.84-1.81,0.84-2.86
		c0-0.96-0.24-1.86-0.72-2.7c-0.48-0.83-1.13-1.5-1.95-1.99s-1.71-0.73-2.67-0.73h-3.97v11.02h3.21
		C233.3,253.29,234.3,253.04,235.25,252.55z"/>
	<path d="M253.3,260.66h-0.71l-1.09-3.4h-8.63l-1.06,3.4h-0.68l6.1-19.6L253.3,260.66z M247.23,243.24l-4.11,13.34h8.19
		L247.23,243.24z"/>
	<path d="M263.39,242.38c0.87,0.52,1.56,1.21,2.07,2.08s0.76,1.82,0.76,2.86c0,1.11-0.3,2.11-0.9,3.01c-0.6,0.9-1.39,1.61-2.37,2.12
		c-0.98,0.52-2.01,0.78-3.08,0.78h-3.08v7.43h-0.65V241.6h4.42C261.58,241.61,262.52,241.87,263.39,242.38z M262.63,251.87
		c0.87-0.47,1.57-1.11,2.11-1.92c0.54-0.81,0.8-1.68,0.8-2.63c0-0.91-0.22-1.75-0.67-2.53c-0.44-0.78-1.05-1.4-1.81-1.85
		s-1.61-0.68-2.53-0.68h-3.73v10.32h3.08C260.85,252.58,261.76,252.34,262.63,251.87z"/>
	<path d="M269.6,241.61v11.46h9.61v-11.46h0.65v19.06h-0.65v-6.89h-9.61v6.89h-0.65v-19.06H269.6z"/>
	<path d="M282.59,241.61h0.79l5.42,9.47l5.44-9.47h0.74l-5.85,10.21v8.85h-0.65v-8.85L282.59,241.61z"/>
</g>
</svg>
